<?xml version="1.0" standalone="no"?>
<!DOCTYPE svg PUBLIC "-//W3C//DTD SVG 20010904//EN"
 "http://www.w3.org/TR/2001/REC-SVG-20010904/DTD/svg10.dtd">
<svg version="1.0" xmlns="http://www.w3.org/2000/svg"
 width="549.000000pt" height="549.000000pt" viewBox="0 0 549.000000 549.000000"
 preserveAspectRatio="xMidYMid meet">
<metadata>
Created by potrace 1.11, written by Peter Selinger 2001-2013
</metadata>
<g transform="translate(0.000000,549.000000) scale(0.100000,-0.100000)"
fill="#000000" stroke="none">
<path d="M2838 4855 c-1 -1 -52 -6 -111 -9 -94 -6 -143 -12 -302 -41 -112 -21
-332 -96 -458 -157 -43 -21 -80 -38 -82 -38 -2 0 -24 -13 -48 -30 -25 -16 -48
-30 -51 -30 -4 0 -35 -19 -69 -42 -353 -238 -613 -545 -777 -918 -125 -284
-179 -561 -175 -885 4 -234 45 -459 122 -672 l15 -42 157 4 c86 2 167 6 181 9
14 2 48 7 75 10 110 12 136 16 275 41 47 8 99 17 115 20 17 3 41 8 55 10 14 3
38 8 55 11 16 3 61 12 100 20 38 9 79 17 90 20 11 2 32 6 47 10 15 3 30 5 33
5 2 0 19 5 37 10 18 5 47 12 63 15 17 2 117 27 224 54 106 28 196 50 200 49
30 -4 -715 -221 -869 -253 -14 -3 -74 -17 -135 -31 -96 -23 -309 -67 -385 -80
-14 -2 -41 -7 -60 -10 -265 -47 -547 -43 -670 8 -114 48 -148 141 -95 256 28
59 27 59 -55 -14 -200 -180 -326 -352 -334 -458 -7 -91 28 -141 129 -188 96
-43 229 -63 430 -62 113 0 318 11 345 18 8 2 47 6 85 10 39 3 81 8 95 10 81
15 77 16 117 -33 114 -143 238 -264 407 -399 95 -76 346 -214 491 -270 100
-39 237 -80 325 -98 67 -14 85 -17 210 -34 66 -10 444 -7 490 3 14 3 66 12
116 21 748 127 1387 686 1626 1420 36 112 57 195 73 300 5 28 9 52 10 55 9 33
25 348 18 362 -2 4 -20 -2 -41 -14 -139 -79 -319 -173 -447 -234 -192 -92
-305 -144 -310 -144 -3 0 -33 -13 -67 -29 -238 -108 -1229 -474 -1244 -458 -2
2 20 12 49 22 100 35 490 193 692 280 284 123 686 322 925 460 453 260 826
568 926 765 107 212 -70 325 -523 336 -90 2 -163 0 -163 -4 0 -4 17 -16 37
-27 84 -45 143 -118 143 -179 0 -23 -75 -146 -89 -146 -4 0 -13 19 -20 43 -22
74 -147 318 -216 422 -296 442 -730 751 -1234 880 -53 13 -109 27 -126 29
-135 22 -179 27 -282 32 -65 3 -123 7 -130 9 -6 2 -13 2 -15 0z"/>
</g>
</svg>
